<svg id="Capa_1" enable-background="new 0 0 512 512" height="512" viewBox="0 0 512 512" width="512" xmlns="http://www.w3.org/2000/svg"><g><path d="m32.004 223.997 63.998-63.998 10.302 158.903z" fill="#ffd064"/><path d="m71.999 275.083v-91.081l-39.995 39.995z" fill="#f2bb4e"/><path d="m479.997 223.997-63.998-63.998-10.303 158.903z" fill="#ffd064"/><path d="m415.998 415.995h-319.996v-408.995c0-3.866 3.134-7 7-7h305.996c3.866 0 7 3.134 7 7z" fill="#e9f1ff"/><path d="m153.002 0h-50c-3.866 0-7 3.134-7 7v408.995h50v-408.995c0-3.866 3.134-7 7-7z" fill="#d7e4f7"/><g><path d="m160.002 71.725c-4.267 0-7.726-3.459-7.726-7.726 0-4.267 3.459-7.726 7.726-7.726 4.267 0 7.726 3.459 7.726 7.726 0 4.267-3.459 7.726-7.726 7.726z" fill="#596c76"/><path d="m351.998 71.725c-4.267 0-7.726-3.459-7.726-7.726 0-4.267 3.459-7.726 7.726-7.726 4.267 0 7.726 3.459 7.726 7.726.001 4.267-3.458 7.726-7.726 7.726z" fill="#596c76"/><g><g><path d="m320 71.726h-127.999c-4.267 0-7.726-3.459-7.726-7.726s3.459-7.726 7.726-7.726h127.999c4.268 0 7.726 3.459 7.726 7.726s-3.459 7.726-7.726 7.726z" fill="#596c76"/></g><g><path d="m320 135.725h-159.999c-4.267 0-7.726-3.459-7.726-7.726s3.459-7.726 7.726-7.726h159.999c4.268 0 7.726 3.459 7.726 7.726s-3.459 7.726-7.726 7.726z" fill="#596c76"/></g><g><path d="m351.999 167.725-191.997-.001c-4.267 0-7.726-3.459-7.726-7.726s3.459-7.726 7.726-7.726l191.997.001c4.268 0 7.726 3.459 7.726 7.726s-3.459 7.726-7.726 7.726z" fill="#596c76"/></g><g><path d="m351.999 199.725-191.997-.001c-4.267 0-7.726-3.459-7.726-7.726s3.459-7.726 7.726-7.726l191.997.001c4.268 0 7.726 3.459 7.726 7.726s-3.459 7.726-7.726 7.726z" fill="#596c76"/></g><g><path d="m351.999 231.724-191.997-.001c-4.267 0-7.726-3.459-7.726-7.726s3.459-7.726 7.726-7.726l191.997.001c4.268 0 7.726 3.459 7.726 7.726s-3.459 7.726-7.726 7.726z" fill="#596c76"/></g><g><path d="m351.999 263.724-191.997-.001c-4.267 0-7.726-3.459-7.726-7.726s3.459-7.726 7.726-7.726l191.997.001c4.268 0 7.726 3.459 7.726 7.726 0 4.266-3.459 7.726-7.726 7.726z" fill="#596c76"/></g><g><path d="m351.999 295.723-191.997-.001c-4.267 0-7.726-3.459-7.726-7.726s3.459-7.726 7.726-7.726h191.997c4.268 0 7.726 3.459 7.726 7.726 0 4.268-3.459 7.727-7.726 7.727z" fill="#596c76"/></g></g></g><path d="m480.001 223.994v280.754c0 1.999-.814 3.812-2.132 5.11-1.319 1.308-3.121 2.112-5.12 2.102l-56.557.031-80.179-143.977-.01-.021z" fill="#ffe07d"/><path d="m477.869 509.857c1.319-1.298 2.132-3.111 2.132-5.11v-32.768l-18.871.01h-67.213l22.275 40 56.557-.031c1.999.011 3.802-.792 5.12-2.101z" fill="#ffd064"/><path d="m175.997 367.992-.01.021-79.953 143.977-56.824.01c-.062 0-.124 0-.185-.01-1.916-.041-3.647-.834-4.914-2.102v-.01c-1.308-1.308-2.112-3.101-2.112-5.089v-280.795z" fill="#ffe07d"/><path d="m79.024 511.99c-1.916-.041-3.647-.834-4.914-2.102v-.01c-1.308-1.308-2.112-3.101-2.112-5.089v-240.795l-40-40v280.795c0 1.988.804 3.781 2.112 5.089v.01c1.267 1.267 2.998 2.06 4.914 2.102.062.01.124.01.186.01l39.839-.007c-.009-.001-.017-.002-.025-.003z" fill="#ffd064"/><path d="m477.869 509.857c-1.319 1.308-3.121 2.112-5.12 2.102l-56.557.031h-377.168c-1.916-.041-3.647-.834-4.914-2.102v-.01l141.876-141.865.01-.021 13.897-13.888c1.352-1.351 3.186-2.11 5.097-2.11h122.018c1.912 0 3.745.759 5.098 2.11l13.897 13.888.01.021z" fill="#ffd064"/><path d="m416.192 471.99h-344.191l-37.891 37.888v.01c1.267 1.267 2.998 2.06 4.914 2.102h377.168l56.557-.031c1.999.01 3.802-.793 5.12-2.102l-37.883-37.881z" fill="#f2bb4e"/><path d="m277.816 384.041h-43.633c-1.424 0-2.815.421-4 1.211l-18.971 12.648c-2.006 1.337-3.211 3.589-3.211 6v43.947c0 28.78 18.416 54.331 45.719 63.432 1.48.493 3.081.493 4.561 0 27.303-9.101 45.719-34.652 45.719-63.432v-43.947c0-2.411-1.205-4.663-3.211-6l-18.972-12.648c-1.185-.79-2.577-1.211-4.001-1.211z" fill="#82d65f"/><path d="m238.001 447.847v-43.947c0-2.411 1.205-4.663 3.211-6l18.972-12.648c1.185-.79 2.576-1.211 4-1.211h-30c-1.424 0-2.815.421-4 1.211l-18.972 12.648c-2.006 1.337-3.211 3.589-3.211 6v43.947c0 28.78 18.416 54.331 45.719 63.432 1.48.493 3.08.493 4.561 0 4.495-1.498 8.749-3.443 12.72-5.774-20.149-11.828-33-33.616-33-57.658z" fill="#77bf51"/><g><path d="m251.696 469.978c-2.042 0-4.01-.809-5.463-2.263l-15.999-16c-3.018-3.018-3.018-7.909 0-10.927s7.91-3.018 10.927 0l9.776 9.777 19.241-25.022c2.6-3.383 7.45-4.019 10.835-1.415 3.382 2.601 4.016 7.452 1.414 10.834l-24.605 31.999c-1.356 1.763-3.405 2.856-5.624 3-.167.012-.335.017-.502.017z" fill="#e9f1ff"/></g></g></svg>